<?xml version="1.0" standalone="no"?>
<!DOCTYPE svg PUBLIC "-//W3C//DTD SVG 20010904//EN"
 "http://www.w3.org/TR/2001/REC-SVG-20010904/DTD/svg10.dtd">
<svg version="1.0" xmlns="http://www.w3.org/2000/svg"
 width="200.000000pt" height="200.000000pt" viewBox="0 0 200.000000 200.000000"
 preserveAspectRatio="xMidYMid meet">

<g transform="translate(0.000000,200.000000) scale(0.100000,-0.100000)"
fill="#ffffff" stroke="none">
<path d="M32 1739 l3 -231 180 -66 c223 -83 275 -111 297 -163 11 -27 27 -44
49 -53 19 -8 37 -26 45 -45 9 -21 26 -37 49 -47 19 -8 35 -21 35 -30 0 -9 13
-28 29 -43 l30 -28 -60 -42 c-137 -97 -218 -257 -219 -431 0 -255 197 -482
453 -522 312 -48 608 205 607 522 -1 189 -98 363 -254 454 -36 21 -66 41 -66
45 1 15 19 33 51 49 23 11 37 28 44 50 5 17 15 32 22 32 28 0 63 34 74 71 19
61 94 100 349 179 l215 67 3 231 2 232 -97 0 -98 0 -219 -125 c-143 -82 -229
-125 -248 -125 -29 0 -156 33 -353 91 -125 37 -189 37 -341 3 l-116 -26 -137
91 -137 91 -97 0 -97 0 2 -231z m301 86 c70 -47 127 -89 127 -95 0 -11 -71
-274 -75 -278 -4 -4 -248 84 -276 99 -17 9 -19 24 -19 178 0 92 3 171 7 174 3
4 29 7 57 7 47 0 60 -6 179 -85z m1575 -89 c1 -93 -1 -173 -5 -177 -10 -10
-329 -109 -349 -109 -12 0 -150 193 -156 220 -2 6 87 62 197 125 195 112 201
115 255 112 l55 -2 3 -169z m-1032 33 c24 -6 44 -14 44 -18 0 -4 -36 -25 -80
-46 -94 -46 -109 -60 -117 -109 -11 -70 35 -126 104 -126 15 0 62 20 103 45
41 25 86 45 100 45 38 -1 305 -245 305 -279 0 -49 -36 -37 -131 43 -89 75 -89
75 -107 54 -10 -12 -16 -24 -15 -28 2 -4 39 -38 83 -75 86 -73 103 -107 55
-113 -19 -2 -47 15 -110 68 -46 38 -89 69 -94 67 -5 -2 -15 -12 -22 -23 -12
-18 -8 -24 46 -67 110 -90 123 -104 110 -127 -14 -25 -30 -25 -64 1 -17 13
-26 30 -26 48 0 35 -22 65 -58 80 -16 7 -36 27 -45 47 -11 21 -30 40 -48 48
-19 8 -37 26 -45 45 -9 21 -26 37 -49 47 -19 8 -35 21 -35 29 0 29 -44 66 -87
72 -41 5 -44 4 -108 -58 l-65 -63 -38 22 c-25 14 -36 27 -34 39 10 53 75 279
82 287 13 14 199 54 253 55 27 1 68 -4 93 -10z m284 -79 c58 -16 118 -30 135
-30 27 0 37 -11 108 -118 42 -65 77 -121 77 -124 0 -3 -23 -20 -50 -37 l-51
-31 -135 122 c-75 68 -146 128 -157 135 -45 25 -98 16 -180 -33 -52 -30 -84
-43 -97 -39 -21 7 -36 47 -25 65 11 17 224 120 249 120 12 0 68 -13 126 -30z
m-450 -265 c18 -21 4 -48 -51 -100 -51 -48 -74 -53 -93 -23 -9 15 -1 28 49 78
62 63 75 69 95 45z m98 -109 c5 -26 -96 -128 -123 -124 -12 2 -21 12 -23 27
-5 34 83 123 118 119 15 -2 26 -10 28 -22z m92 -87 c10 -18 5 -28 -48 -81 -53
-53 -63 -58 -81 -48 -33 17 -25 40 31 97 56 57 81 65 98 32z m100 -107 c0 -22
-100 -122 -122 -122 -9 0 -22 9 -28 21 -10 18 -5 28 48 81 53 53 63 58 81 48
12 -6 21 -18 21 -28z m48 -94 c17 -17 15 -48 -4 -55 -8 -3 -27 0 -41 6 l-26
12 23 24 c27 28 31 30 48 13z m174 -54 c75 -38 162 -130 199 -208 85 -181 52
-381 -88 -527 -184 -193 -487 -191 -670 4 -140 150 -170 339 -83 525 32 68
122 167 178 196 30 16 34 16 57 -1 13 -10 25 -20 25 -23 0 -3 -20 -16 -45 -29
-25 -13 -65 -46 -91 -73 -187 -200 -124 -524 125 -642 61 -29 74 -31 171 -31
97 0 110 2 171 31 306 145 312 576 9 727 -59 30 -66 36 -59 55 11 29 38 28
101 -4z m-79 -101 c74 -33 148 -112 177 -191 18 -46 21 -72 18 -137 -8 -135
-69 -229 -186 -287 -60 -30 -76 -33 -152 -33 -76 0 -92 3 -152 33 -117 58
-178 152 -186 287 -5 101 19 172 85 245 103 115 253 146 396 83z"/>
<path d="M970 811 c0 -23 -5 -30 -28 -34 -85 -17 -124 -118 -75 -194 21 -32
74 -53 135 -53 62 0 88 -19 88 -63 0 -42 -24 -57 -90 -57 -67 0 -90 15 -90 61
0 27 -3 29 -36 29 l-37 0 6 -37 c9 -51 35 -84 85 -108 35 -16 42 -24 42 -47 0
-24 4 -28 30 -28 26 0 30 3 30 29 0 25 6 31 34 41 67 22 107 93 86 154 -19 57
-61 86 -128 86 -78 0 -106 16 -110 62 -2 28 2 40 20 52 46 33 158 12 158 -30
0 -9 11 -14 34 -14 34 0 34 0 25 33 -10 39 -51 76 -90 84 -24 4 -29 11 -29 34
0 26 -4 29 -30 29 -26 0 -30 -3 -30 -29z"/>
<path d="M173 972 c-94 -127 -100 -138 -86 -154 9 -10 21 -18 27 -18 6 1 38
37 71 82 l60 82 3 -327 2 -327 30 0 30 0 2 328 3 327 63 -82 c35 -46 66 -83
70 -83 9 1 42 26 42 32 0 8 -200 273 -208 275 -4 1 -53 -60 -109 -135z"/>
<path d="M1620 984 c-120 -160 -116 -153 -93 -169 10 -8 21 -15 25 -15 4 0 35
37 70 83 l63 82 3 -327 2 -328 30 0 30 0 2 327 3 327 60 -82 c33 -45 65 -81
71 -82 6 0 18 8 27 18 14 16 8 27 -86 154 -56 76 -104 137 -107 138 -3 0 -48
-57 -100 -126z"/>
<path d="M250 220 c0 -27 3 -30 30 -30 27 0 30 3 30 30 0 27 -3 30 -30 30 -27
0 -30 -3 -30 -30z"/>
<path d="M1690 220 c0 -27 3 -30 30 -30 27 0 30 3 30 30 0 27 -3 30 -30 30
-27 0 -30 -3 -30 -30z"/>
</g>
</svg>
