<svg width="512" height="512" xmlns="http://www.w3.org/2000/svg">
 <g>
  <rect fill="#1a1e23" width="512" height="512" />
  <g id="svg_1">
   <g id="svg_2" transform="translate(0, 250) scale(0.1, -0.1)" fill="#ff0420">
    <path id="svg_3" d="m3000.94604,1780.82541c-215.52135,-45.63146 -444.40835,-306.97531 -736.78224,-840.03379c-220.53346,-398.23825 -456.1033,-945.81582 -583.07711,-1341.97991c-65.15761,-207.41576 -28.40204,-184.60002 -337.48303,-224.00901c-312.4224,-39.40899 -598.11348,-149.33934 -736.78224,-280.01126c-115.27886,-107.8562 -142.01019,-306.97531 -56.80407,-418.97981c88.54753,-118.22698 217.19205,-165.9326 656.58827,-244.75059c165.4001,-29.03821 394.2871,-80.89215 509.56596,-114.07867c825.32977,-236.45396 1408.40689,-298.67869 1884.55868,-194.9708c80.19399,16.59325 232.22841,66.37304 339.15373,112.00451c442.73763,182.52586 678.30747,394.08993 641.55189,576.61578c-18.37779,89.18877 -128.64452,201.19327 -270.65471,273.78879c-148.69301,76.74382 -546.32154,207.41576 -651.57614,213.63823c-65.15761,4.14831 -71.84045,8.29663 -71.84045,58.07641c0,29.03821 -25.06062,211.56407 -56.80407,404.46072c-31.74345,192.89665 -65.15761,433.49892 -76.85256,537.20679c-23.38992,221.93485 -43.43841,259.2697 -145.3516,259.2697c-55.13337,0 -83.5354,12.44494 -113.60814,51.85394c-23.38992,26.96405 -41.76771,64.29888 -41.76771,82.96629c0,47.70563 15.03638,37.33483 33.41417,-20.74158c18.37779,-58.07641 75.18186,-93.33709 152.03444,-93.33709c26.73133,0 66.82832,-14.51911 88.54753,-33.18652c38.42628,-29.03821 48.45053,-26.96405 188.79002,62.22473c81.8647,49.77977 192.13143,107.8562 243.92338,126.52361c120.29098,43.5573 170.41223,24.88989 295.71532,-105.78203c50.12123,-51.85394 123.6324,-114.07867 163.72939,-136.89439c68.49902,-37.33483 75.18186,-39.40899 115.27886,-6.22247c36.75558,31.11236 41.76771,45.63146 33.41417,128.59776c-10.02425,112.00451 -153.70514,487.42702 -253.94763,661.65626c-118.62027,207.41576 -375.90931,408.60903 -618.16199,485.35285c-136.99806,43.5573 -436.05481,53.9281 -594.77207,20.74158l-0.00005,-0.00002zm481.16393,-2623.80927c-25.06062,-29.03821 -60.1455,-51.85394 -75.18186,-51.85394c-16.70708,0 0,22.81574 38.42628,49.77977c86.87681,64.29888 95.23035,64.29888 36.75558,2.07416zm-1354.94423,-205.3416c150.36372,-47.70563 377.58002,-74.66968 613.14986,-74.66968c130.31522,0 212.17992,-8.29663 212.17992,-20.74158c0,-43.5573 -546.32154,-6.22247 -778.54995,51.85394c-135.32736,35.26068 -273.99612,105.78203 -273.99612,136.89439c0,10.37078 28.40204,2.07416 63.48691,-20.74158c35.08487,-22.81574 108.59603,-53.9281 163.72939,-72.59551l0,0.00002z"/>
   </g>
  </g>
 </g>
</svg>
