<?xml version="1.0" standalone="no"?>
<!DOCTYPE svg PUBLIC "-//W3C//DTD SVG 20010904//EN"
 "http://www.w3.org/TR/2001/REC-SVG-20010904/DTD/svg10.dtd">
<svg version="1.0" xmlns="http://www.w3.org/2000/svg"
 width="80.000000pt" height="80.000000pt" viewBox="0 0 80.000000 80.000000"
 preserveAspectRatio="xMidYMid meet">

<g transform="translate(0.000000,80.000000) scale(0.100000,-0.100000)"
fill="#000000" stroke="none">
<path d="M257 599 l-128 -201 32 -49 c17 -27 35 -46 40 -43 5 3 1 20 -11 38
-11 19 -20 36 -20 40 0 6 46 27 87 40 17 5 21 1 26 -24 4 -16 12 -30 18 -30 7
0 9 12 5 35 l-7 35 94 0 c51 0 96 -3 99 -6 5 -4 -73 -322 -89 -364 -3 -8 -15
23 -27 69 -12 47 -27 86 -34 89 -15 5 -15 2 4 -70 8 -33 14 -62 12 -63 -2 -2
-30 39 -63 91 -33 52 -66 94 -73 94 -16 0 -11 -9 88 -163 44 -69 81 -116 89
-115 15 3 261 375 261 395 0 21 -70 124 -81 118 -10 -7 -7 -13 24 -58 10 -16
17 -30 15 -33 -3 -2 -26 4 -51 15 -40 17 -47 25 -62 71 -10 31 -21 48 -26 43
-6 -6 -3 -26 5 -51 l15 -42 -101 0 c-76 0 -99 3 -95 13 2 6 24 72 48 144 24
73 46 129 50 125 4 -4 17 -38 29 -77 27 -83 29 -87 40 -80 5 3 2 24 -6 47 -21
60 -17 67 13 23 15 -21 28 -34 31 -27 5 17 -91 166 -109 169 -9 2 -63 -74
-142 -198z m55 -28 c-34 -101 -41 -114 -68 -126 -78 -33 -78 -32 13 109 48 75
88 134 90 133 1 -2 -14 -54 -35 -116z m271 -164 l48 -22 -86 -135 c-48 -74
-94 -142 -103 -150 -8 -8 -12 -10 -9 -5 3 6 24 83 47 173 24 89 45 162 49 161
3 0 28 -10 54 -22z"/>
<path d="M206 762 c-7 -11 31 -48 41 -38 4 3 -2 16 -14 27 -11 12 -23 17 -27
11z"/>
<path d="M565 750 c-25 -27 -10 -39 16 -13 12 11 17 23 11 27 -5 3 -17 -3 -27
-14z"/>
<path d="M112 618 c3 -7 13 -15 22 -16 12 -3 17 1 14 10 -3 7 -13 15 -22 16
-12 3 -17 -1 -14 -10z"/>
<path d="M519 604 l-24 -26 29 -25 29 -25 25 26 26 25 -24 26 c-29 31 -31 31
-61 -1z m42 -27 c-13 -13 -26 -3 -16 12 3 6 11 8 17 5 6 -4 6 -10 -1 -17z"/>
<path d="M655 619 c-4 -6 -4 -13 -1 -16 8 -8 36 5 36 17 0 13 -27 13 -35 -1z"/>
<path d="M40 400 c0 -5 11 -10 25 -10 14 0 25 5 25 10 0 6 -11 10 -25 10 -14
0 -25 -4 -25 -10z"/>
<path d="M710 400 c0 -5 11 -10 25 -10 14 0 25 5 25 10 0 6 -11 10 -25 10 -14
0 -25 -4 -25 -10z"/>
<path d="M294 329 c-19 -22 -13 -43 19 -63 12 -8 21 -5 36 8 26 23 26 38 3 59
-24 22 -35 21 -58 -4z m46 -24 c0 -8 -4 -15 -9 -15 -13 0 -22 16 -14 24 11 11
23 6 23 -9z"/>
<path d="M115 189 c-4 -6 -4 -13 -1 -16 8 -8 36 5 36 17 0 13 -27 13 -35 -1z"/>
<path d="M652 188 c3 -7 13 -15 22 -16 12 -3 17 1 14 10 -3 7 -13 15 -22 16
-12 3 -17 -1 -14 -10z"/>
<path d="M217 62 c-10 -10 -14 -22 -10 -25 7 -8 43 21 43 35 0 14 -16 9 -33
-10z"/>
<path d="M550 72 c0 -14 36 -43 43 -35 4 3 0 15 -10 25 -17 19 -33 24 -33 10z"/>
</g>
</svg>
