<?xml version="1.0" standalone="no"?>
<!DOCTYPE svg PUBLIC "-//W3C//DTD SVG 20010904//EN"
 "http://www.w3.org/TR/2001/REC-SVG-20010904/DTD/svg10.dtd">
<svg version="1.0" xmlns="http://www.w3.org/2000/svg"
 width="30.000000pt" height="30.000000pt" viewBox="0 0 30.000000 30.000000"
 preserveAspectRatio="xMidYMid meet">

<g transform="translate(0.000000,30.000000) scale(0.100000,-0.100000)"
fill="#fff" stroke="none">
<path d="M131 224 c-10 -27 -23 -40 -52 -53 -21 -9 -39 -18 -39 -21 0 -4 16
-12 36 -19 27 -10 40 -23 53 -52 9 -21 18 -39 21 -39 3 0 12 18 21 39 13 29
26 42 53 52 20 7 36 15 36 19 0 3 -18 12 -39 21 -29 13 -42 26 -52 53 -7 20
-16 36 -19 36 -3 0 -12 -16 -19 -36z"/>
</g>
</svg>
