<?xml version="1.0" standalone="no"?>
<!DOCTYPE svg PUBLIC "-//W3C//DTD SVG 20010904//EN"
 "http://www.w3.org/TR/2001/REC-SVG-20010904/DTD/svg10.dtd">
<svg version="1.0" xmlns="http://www.w3.org/2000/svg"
 width="60.000000pt" height="60.000000pt" viewBox="0 0 60.000000 60.000000"
 preserveAspectRatio="xMidYMid meet">

<g transform="translate(0.000000,60.000000) scale(0.100000,-0.100000)"
fill="#1a1e23" stroke="none">
<path d="M490 529 c0 -9 -9 -28 -21 -43 l-20 -26 20 -26 c12 -15 21 -34 21
-43 1 -9 7 -3 16 14 9 17 23 36 32 43 14 11 14 13 0 25 -9 6 -23 26 -32 42 -9
17 -15 23 -16 14z"/>
<path d="M290 488 c0 -60 -84 -178 -126 -178 -8 0 -14 -4 -14 -10 0 -5 6 -10
14 -10 42 0 126 -118 126 -177 0 -13 5 -23 10 -23 6 0 10 10 10 23 0 59 84
177 126 177 8 0 14 5 14 10 0 6 -6 10 -14 10 -42 0 -126 118 -126 178 0 12 -4
22 -10 22 -5 0 -10 -10 -10 -22z"/>
<path d="M90 191 c-7 -17 -20 -36 -29 -41 -15 -8 -15 -10 0 -22 9 -7 24 -26
33 -43 9 -17 15 -23 16 -14 0 9 9 28 21 43 19 25 20 29 6 44 -9 10 -20 28 -25
41 -8 24 -9 24 -22 -8z"/>
</g>
</svg>
