<svg version="1.0" xmlns="http://www.w3.org/2000/svg"
 width="250.000000pt" height="250.000000pt" viewBox="0 0 250.000000 250.000000"
 preserveAspectRatio="xMidYMid meet">
<g transform="translate(0.000000,250.000000) scale(0.100000,-0.100000)"
fill="#ff0420" stroke="none">
<path d="M1519 2100 c-129 -22 -266 -148 -441 -405 -132 -192 -273 -456 -349
-647 -39 -100 -17 -89 -202 -108 -187 -19 -358 -72 -441 -135 -69 -52 -85
-148 -34 -202 53 -57 130 -80 393 -118 99 -14 236 -39 305 -55 494 -114 843
-144 1128 -94 48 8 139 32 203 54 265 88 406 190 384 278 -11 43 -77 97 -162
132 -89 37 -327 100 -390 103 -39 2 -43 4 -43 28 0 14 -15 102 -34 195 -19 93
-39 209 -46 259 -14 107 -26 125 -87 125 -33 0 -50 6 -68 25 -14 13 -25 31
-25 40 0 23 9 18 20 -10 11 -28 45 -45 91 -45 16 0 40 -7 53 -16 23 -14 29
-13 113 30 49 24 115 52 146 61 72 21 102 12 177 -51 30 -25 74 -55 98 -66 41
-18 45 -19 69 -3 22 15 25 22 20 62 -6 54 -92 235 -152 319 -71 100 -225 197
-370 234 -82 21 -261 26 -356 10z m288 -1265 c-15 -14 -36 -25 -45 -25 -10 0
0 11 23 24 52 31 57 31 22 1z m-811 -99 c90 -23 226 -36 367 -36 78 0 127 -4
127 -10 0 -21 -327 -3 -466 25 -81 17 -164 51 -164 66 0 5 17 1 38 -10 21 -11
65 -26 98 -35z"/>
</g>
</svg>
