<?xml version="1.0" standalone="no"?>
<!DOCTYPE svg PUBLIC "-//W3C//DTD SVG 20010904//EN"
 "http://www.w3.org/TR/2001/REC-SVG-20010904/DTD/svg10.dtd">
<svg version="1.0" xmlns="http://www.w3.org/2000/svg"
 width="350.000000pt" height="350.000000pt" viewBox="0 0 350.000000 350.000000"
 preserveAspectRatio="xMidYMid meet">

<g transform="translate(0.000000,350.000000) scale(0.100000,-0.100000)"
fill="#fff" stroke="none">
<path d="M1985 3489 c-17 -4 -57 -31 -90 -59 -252 -215 -607 -346 -1063 -395
-150 -16 -185 -31 -224 -93 -21 -33 -23 -47 -21 -142 4 -134 17 -265 48 -459
58 -358 159 -686 301 -977 30 -61 54 -115 54 -120 0 -5 -220 -229 -489 -499
-433 -433 -490 -494 -496 -528 -26 -139 104 -254 232 -206 15 5 236 218 490
472 273 272 466 457 471 452 4 -6 41 -49 80 -97 165 -197 383 -371 621 -494
121 -63 162 -65 271 -10 321 164 598 416 813 741 87 131 225 405 280 555 130
352 215 772 233 1147 5 111 4 120 -18 158 -13 22 -38 50 -57 62 -36 25 -33 24
-236 47 -394 46 -731 172 -969 365 -111 89 -152 103 -231 80z m150 -166 c279
-225 668 -364 1143 -409 42 -4 79 -13 88 -21 18 -19 18 -116 -1 -295 -73 -686
-293 -1260 -644 -1679 -89 -107 -175 -189 -296 -284 -135 -106 -340 -225 -386
-225 -31 0 -204 98 -324 183 -54 39 -150 120 -212 180 -110 107 -223 235 -223
254 0 5 17 26 38 46 l38 37 74 -91 c119 -146 250 -263 420 -376 168 -113 194
-116 319 -41 251 150 471 366 640 628 129 199 251 484 327 759 58 211 111 522
117 679 2 68 1 73 -29 103 -29 29 -43 33 -171 54 -348 58 -642 166 -875 321
-128 85 -143 85 -266 4 -246 -161 -521 -263 -882 -324 -135 -23 -147 -27 -172
-56 -34 -37 -36 -82 -13 -268 41 -333 145 -700 281 -991 l44 -95 -37 -38 c-20
-21 -41 -38 -46 -38 -12 0 -118 226 -160 340 -122 329 -201 715 -223 1080 -8
145 -10 143 141 159 404 43 747 155 1000 327 44 30 100 72 125 94 26 23 55 39
70 40 16 0 51 -21 95 -57z m198 -399 c202 -98 476 -181 712 -215 44 -6 84 -15
88 -19 4 -3 1 -65 -8 -136 -85 -725 -349 -1307 -755 -1662 -93 -82 -277 -208
-316 -218 -69 -17 -389 239 -550 441 l-64 80 162 162 c90 90 166 163 170 163
5 0 8 -7 8 -16 0 -9 15 -31 34 -50 26 -26 42 -34 70 -34 59 0 81 18 162 131
l78 109 112 0 c140 0 168 6 205 42 24 24 29 38 29 77 0 43 -7 56 -75 149 l-76
103 43 117 c54 151 53 199 -7 238 -39 26 -83 20 -207 -25 l-116 -42 -103 75
c-93 69 -107 76 -150 76 -35 0 -52 -6 -73 -25 -39 -37 -46 -65 -46 -199 l0
-123 -109 -77 c-113 -81 -131 -103 -131 -162 0 -28 8 -44 34 -70 19 -19 41
-34 50 -34 9 0 16 -3 16 -7 0 -9 -252 -263 -261 -263 -10 0 -87 180 -136 319
-52 147 -104 341 -133 496 -22 122 -51 355 -45 366 3 3 31 9 63 13 85 10 282
52 381 81 219 66 411 152 566 254 l88 57 81 -54 c44 -30 139 -83 209 -118z
m-438 -649 c59 -43 113 -75 126 -75 13 0 78 20 143 45 65 25 120 44 121 43 2
-2 -17 -57 -41 -122 -24 -66 -44 -131 -44 -144 0 -15 30 -66 75 -129 41 -56
75 -105 75 -108 0 -3 -59 -5 -131 -5 -72 0 -139 -5 -149 -10 -10 -6 -53 -60
-95 -120 -42 -61 -78 -110 -80 -110 -2 0 -14 33 -25 73 -12 39 -30 100 -41
134 l-20 62 -62 20 c-34 11 -95 29 -136 41 l-73 22 88 63 c49 35 104 77 122
93 l32 29 0 137 c0 75 3 136 6 136 3 0 52 -34 109 -75z m-178 -558 c2 -3 6
-20 9 -38 5 -32 0 -39 -75 -114 l-81 -80 -42 43 -43 42 80 81 c75 75 82 80
114 75 18 -3 35 -7 38 -9z m-270 -269 c18 -18 33 -37 33 -43 0 -5 -287 -297
-638 -648 -671 -671 -664 -664 -706 -621 -43 42 -50 35 621 706 351 351 642
638 647 638 6 0 25 -14 43 -32z"/>
<path d="M1512 2664 c-34 -23 -28 -60 17 -105 51 -51 83 -52 110 -1 14 26 5
46 -44 95 -32 31 -51 34 -83 11z"/>
<path d="M2000 2653 c-18 -24 -21 -38 -18 -87 5 -63 22 -86 63 -86 38 0 55 30
55 98 0 49 -4 66 -20 82 -28 28 -55 25 -80 -7z"/>
<path d="M2471 2555 c-73 -83 1 -157 84 -84 26 23 35 39 35 63 0 40 -16 56
-56 56 -24 0 -40 -9 -63 -35z"/>
<path d="M1362 2260 c-25 -10 -42 -46 -34 -70 10 -29 36 -40 97 -40 48 0 66 4
79 19 25 27 17 72 -14 88 -29 15 -95 16 -128 3z"/>
<path d="M2497 2082 c-21 -23 -22 -52 -3 -77 10 -13 30 -20 72 -23 49 -3 63 0
87 18 32 25 35 52 7 80 -28 28 -139 29 -163 2z"/>
<path d="M2540 1630 c-30 -30 -24 -58 19 -101 45 -45 82 -51 105 -17 25 35 19
52 -29 97 -50 46 -66 50 -95 21z"/>
<path d="M2167 1502 c-21 -23 -24 -129 -4 -156 17 -23 63 -24 85 -3 20 21 27
114 10 147 -17 32 -67 39 -91 12z"/>
<path d="M1887 2082 c-21 -23 -22 -65 -2 -82 13 -11 13 -15 0 -33 -18 -26 -19
-69 -3 -85 16 -16 59 -15 85 3 18 13 22 13 33 0 17 -21 64 -19 83 3 21 23 22
50 2 72 -14 16 -14 20 2 48 14 24 15 35 5 56 -15 34 -54 43 -88 21 -23 -15
-27 -15 -43 -1 -23 21 -54 20 -74 -2z"/>
</g>
</svg>
