<?xml version="1.0" standalone="no"?>
<!DOCTYPE svg PUBLIC "-//W3C//DTD SVG 20010904//EN"
 "http://www.w3.org/TR/2001/REC-SVG-20010904/DTD/svg10.dtd">
<svg version="1.0" xmlns="http://www.w3.org/2000/svg"
 width="200.000000pt" height="200.000000pt" viewBox="0 0 200.000000 200.000000"
 preserveAspectRatio="xMidYMid meet">

<g transform="translate(0.000000,200.000000) scale(0.100000,-0.100000)"
fill="#fff" stroke="none">
<path d="M844 1938 c3 -13 6 -26 6 -30 0 -15 60 -8 60 6 0 32 -13 46 -42 46
-27 0 -30 -3 -24 -22z"/>
<path d="M737 1933 c-15 -4 -17 -11 -12 -31 9 -34 8 -34 39 -26 28 7 29 8 20
42 -6 22 -12 24 -47 15z"/>
<path d="M618 1889 c-14 -8 -15 -14 -6 -34 12 -28 20 -30 48 -15 17 9 18 14 8
35 -12 27 -23 30 -50 14z"/>
<path d="M513 1838 c-28 -13 -28 -19 -5 -47 16 -20 19 -20 39 -6 19 13 21 19
11 40 -12 28 -14 28 -45 13z"/>
<path d="M406 1765 c-18 -13 -18 -16 -2 -40 16 -24 17 -24 42 -9 22 15 23 19
11 37 -18 27 -28 29 -51 12z"/>
<path d="M845 1765 c-277 -60 -494 -253 -585 -520 -33 -96 -34 -106 -34 -245
0 -138 1 -150 32 -240 39 -110 72 -172 139 -255 93 -115 208 -193 363 -247 90
-31 102 -32 240 -32 138 0 150 1 240 32 110 39 172 72 255 139 166 135 271
342 283 559 6 121 -8 209 -51 324 -114 302 -408 502 -734 499 -48 0 -115 -6
-148 -14z m264 -56 c155 -25 285 -92 397 -203 283 -283 283 -729 0 -1012 -283
-283 -729 -283 -1012 0 -283 283 -283 729 0 1012 166 165 391 240 615 203z"/>
<path d="M909 1650 c-137 -21 -255 -78 -355 -172 -76 -72 -128 -148 -165 -242
-153 -395 105 -828 529 -886 321 -44 635 170 718 490 22 85 22 235 0 320 -32
121 -82 207 -176 300 -124 124 -247 181 -421 193 -41 3 -99 2 -130 -3z m236
-75 c109 -28 184 -72 271 -159 122 -123 174 -246 174 -416 0 -170 -52 -293
-174 -416 -123 -122 -246 -174 -416 -174 -170 0 -293 52 -416 174 -122 123
-174 246 -174 416 0 170 52 293 174 416 86 86 161 131 266 158 73 19 221 20
295 1z"/>
<path d="M563 1175 c-33 -14 -63 -59 -63 -95 0 -15 6 -20 28 -20 22 0 30 7 39
30 22 59 106 28 87 -33 -3 -12 -40 -64 -82 -116 -97 -119 -95 -125 47 -129
l102 -3 -3 33 -3 32 -52 -3 c-35 -2 -53 1 -53 9 0 7 20 35 44 64 68 79 81 128
50 187 -14 28 -66 60 -96 59 -7 -1 -27 -7 -45 -15z"/>
<path d="M924 1182 c-21 -13 -175 -266 -172 -282 2 -11 22 -16 78 -20 l75 -5
3 -32 c3 -29 7 -33 32 -33 25 0 29 4 32 33 2 27 8 33 31 35 23 3 27 8 27 33 0
26 -3 29 -30 29 l-30 0 0 113 c0 123 -10 152 -46 129z m-17 -239 c-3 -2 -19
-3 -36 -1 l-31 3 33 50 32 49 3 -48 c2 -26 1 -50 -1 -53z"/>
<path d="M1155 1178 c-19 -55 -85 -344 -81 -355 3 -7 16 -13 28 -13 22 0 26
12 69 184 38 153 44 186 32 190 -24 10 -43 7 -48 -6z"/>
<path d="M1262 1178 c-7 -7 -12 -29 -12 -50 0 -35 2 -38 29 -38 20 0 30 6 34
20 4 16 14 20 51 20 25 0 46 -3 46 -6 0 -4 -11 -37 -24 -74 -28 -77 -51 -219
-37 -233 5 -5 19 -7 32 -5 19 2 24 10 27 38 5 79 26 159 59 232 47 104 44 108
-91 108 -66 0 -106 -4 -114 -12z"/>
<path d="M1600 1700 c-6 -11 -10 -53 -8 -93 l3 -72 30 0 c28 0 30 3 33 43 l3
43 40 -48 c186 -222 252 -554 167 -833 -51 -167 -166 -338 -297 -443 -155
-122 -294 -177 -513 -202 -57 -6 -58 -7 -58 -37 l0 -31 73 7 c172 17 326 70
461 161 204 136 348 341 408 582 33 130 31 331 -5 465 -32 120 -90 240 -162
336 -30 40 -55 75 -55 78 0 2 14 4 30 4 27 0 30 3 30 30 l0 30 -85 0 c-74 0
-86 -2 -95 -20z"/>
<path d="M316 1684 c-20 -20 -20 -27 2 -47 17 -16 20 -15 40 6 22 23 22 24 4
40 -23 21 -27 21 -46 1z"/>
<path d="M230 1585 c-12 -22 -11 -27 6 -40 26 -19 29 -19 47 9 15 23 15 25 -8
40 -31 20 -29 21 -45 -9z"/>
<path d="M161 1484 c-10 -22 -9 -28 6 -40 24 -18 29 -17 48 8 14 21 14 24 -7
40 -30 23 -33 23 -47 -8z"/>
<path d="M110 1380 c-15 -28 -12 -38 12 -51 18 -10 24 -8 35 7 19 26 16 39
-12 52 -21 10 -26 9 -35 -8z"/>
<path d="M66 1255 c-8 -33 -1 -45 28 -45 16 0 26 7 30 22 6 25 1 33 -30 42
-17 5 -23 2 -28 -19z"/>
<path d="M45 1152 c-3 -3 -5 -18 -5 -34 0 -24 4 -28 30 -28 26 0 30 3 30 29 0
23 -5 30 -25 33 -13 3 -27 3 -30 0z"/>
<path d="M30 1000 c0 -27 3 -30 30 -30 27 0 30 3 30 30 0 27 -3 30 -30 30 -27
0 -30 -3 -30 -30z"/>
<path d="M40 881 c0 -35 8 -42 38 -34 16 4 22 13 22 34 0 26 -4 29 -30 29 -27
0 -30 -3 -30 -29z"/>
<path d="M72 781 c-9 -5 -11 -17 -6 -35 6 -24 10 -27 33 -21 33 9 33 8 25 39
-6 26 -27 33 -52 17z"/>
<path d="M123 669 c-25 -9 -28 -21 -13 -49 9 -17 14 -18 35 -8 28 12 31 26 13
50 -10 12 -19 14 -35 7z"/>
<path d="M175 558 c-11 -6 -21 -12 -23 -13 -5 -4 21 -55 27 -55 3 0 16 8 29
18 23 18 23 19 5 40 -15 18 -22 19 -38 10z"/>
<path d="M235 450 c-15 -17 -16 -22 -4 -37 7 -10 14 -20 16 -22 1 -2 14 4 28
13 24 16 24 18 9 41 -20 30 -26 31 -49 5z"/>
<path d="M315 360 c-18 -20 -18 -21 3 -43 l22 -21 20 20 20 20 -23 22 -24 22
-18 -20z"/>
<path d="M404 275 c-9 -14 -15 -27 -13 -28 2 -2 12 -9 22 -16 15 -12 20 -11
37 4 26 23 25 29 -5 49 -23 15 -25 15 -41 -9z"/>
<path d="M505 204 c-9 -14 -15 -27 -13 -29 10 -8 50 -26 53 -23 17 21 23 47
12 55 -28 22 -36 22 -52 -3z"/>
<path d="M612 145 c-10 -21 -9 -26 8 -35 28 -15 40 -12 49 13 7 16 5 25 -7 35
-24 18 -38 15 -50 -13z"/>
<path d="M727 103 c-6 -33 -8 -30 25 -38 23 -6 28 -3 34 19 8 31 7 32 -27 41
-23 6 -27 3 -32 -22z"/>
<path d="M848 75 c-6 -30 -2 -35 34 -35 24 0 28 4 28 30 0 26 -3 30 -29 30
-23 0 -30 -5 -33 -25z"/>
</g>
</svg>
