<?xml version="1.0" standalone="no"?>
<!DOCTYPE svg PUBLIC "-//W3C//DTD SVG 20010904//EN"
 "http://www.w3.org/TR/2001/REC-SVG-20010904/DTD/svg10.dtd">
<svg version="1.0" xmlns="http://www.w3.org/2000/svg"
 width="200.000000pt" height="200.000000pt" viewBox="0 0 200.000000 200.000000"
 preserveAspectRatio="xMidYMid meet">

<g transform="translate(0.000000,200.000000) scale(0.100000,-0.100000)"
fill="#fff" stroke="none">
<path d="M1350 1990 c-10 -6 -19 -53 -32 -162 -9 -84 -15 -161 -12 -170 7 -23
43 -33 59 -17 19 21 50 326 34 345 -13 16 -28 18 -49 4z"/>
<path d="M737 1726 c-20 -7 -45 -20 -54 -27 -9 -8 -89 -162 -178 -344 l-162
-330 -79 -50 c-143 -91 -189 -147 -201 -244 -9 -74 19 -145 81 -206 76 -75
182 -97 272 -56 l41 19 141 -207 c151 -222 167 -242 225 -266 105 -44 228 71
198 183 -6 20 -68 121 -138 224 -69 103 -124 190 -122 193 3 2 117 13 255 24
372 30 352 27 395 70 48 48 63 103 56 206 -28 385 -490 899 -730 811z m133
-85 c118 -45 257 -175 368 -344 100 -152 152 -289 152 -400 0 -211 -162 -206
-381 12 -186 186 -310 431 -309 611 1 71 15 106 51 126 33 18 60 17 119 -5z
m-210 -324 c69 -207 221 -420 404 -563 l39 -31 -232 -18 c-127 -10 -233 -16
-235 -14 -2 2 -51 74 -110 160 l-106 157 101 206 c56 114 103 205 104 204 2
-2 18 -47 35 -101z m-202 -501 c51 -74 94 -140 97 -148 7 -19 -150 -127 -201
-138 -102 -24 -214 68 -214 174 0 46 20 94 52 123 26 25 159 120 169 122 3 1
47 -59 97 -133z m350 -419 c78 -116 142 -220 142 -229 0 -32 -23 -67 -51 -78
-57 -24 -73 -9 -232 224 -81 120 -147 219 -145 221 35 27 117 75 128 75 8 0
78 -94 158 -213z"/>
<path d="M894 1341 c-48 -22 -58 -34 -49 -60 8 -27 32 -33 65 -16 70 36 161 4
188 -67 20 -51 9 -98 -33 -143 -40 -41 -41 -47 -19 -69 23 -24 40 -20 78 19
43 42 69 120 59 177 -8 55 -60 127 -107 152 -56 28 -131 31 -182 7z"/>
<path d="M1647 1614 c-134 -87 -148 -99 -145 -123 6 -48 50 -34 196 63 73 48
136 95 139 103 7 19 -9 47 -28 51 -8 1 -81 -41 -162 -94z"/>
<path d="M1572 1268 c-16 -16 -15 -43 1 -56 16 -13 301 -64 334 -60 14 2 31
11 37 20 20 33 -13 46 -186 78 -196 35 -171 33 -186 18z"/>
</g>
</svg>
