<?xml version="1.0" standalone="no"?>
<!DOCTYPE svg PUBLIC "-//W3C//DTD SVG 20010904//EN"
 "http://www.w3.org/TR/2001/REC-SVG-20010904/DTD/svg10.dtd">
<svg version="1.0" xmlns="http://www.w3.org/2000/svg"
 width="200.000000pt" height="200.000000pt" viewBox="0 0 200.000000 200.000000"
 preserveAspectRatio="xMidYMid meet">

<g transform="translate(0.000000,200.000000) scale(0.100000,-0.100000)"
fill="#fff" stroke="none">
<path d="M909 1954 c-8 -10 -23 -42 -35 -73 l-21 -56 -72 -5 c-79 -5 -109 -25
-91 -60 7 -12 90 -86 107 -95 1 0 -6 -33 -16 -72 -29 -111 1 -132 96 -68 29
19 55 35 58 35 3 0 29 -16 58 -35 55 -38 87 -44 107 -21 9 12 7 30 -8 85 l-19
71 58 50 c33 28 59 58 59 65 0 27 -43 45 -106 45 l-62 0 -27 69 c-30 80 -57
100 -86 65z m75 -186 c6 -4 30 -8 54 -8 23 0 42 -2 42 -5 0 -3 -16 -20 -36
-37 -32 -29 -35 -35 -30 -69 3 -20 9 -45 12 -54 5 -13 -5 -10 -43 11 l-50 28
-41 -27 c-23 -15 -44 -27 -46 -27 -3 0 0 15 5 32 16 58 11 79 -28 114 l-38 33
47 1 c53 0 71 13 89 67 l12 38 20 -45 c11 -25 25 -48 31 -52z"/>
<path d="M422 1673 c-5 -10 -17 -41 -27 -70 -20 -56 -33 -63 -119 -63 -85 0
-89 -47 -10 -109 45 -35 54 -48 49 -65 -23 -81 -28 -125 -16 -140 20 -23 36
-20 94 19 28 19 58 35 65 35 7 0 36 -16 65 -35 57 -38 78 -43 97 -20 10 12 9
29 -5 87 l-18 72 57 50 c31 28 56 58 56 67 0 26 -22 39 -66 39 -88 0 -101 7
-125 69 -12 31 -27 62 -32 69 -14 18 -55 15 -65 -5z m58 -139 c13 -38 40 -54
93 -54 l32 0 -37 -36 c-41 -38 -43 -43 -28 -93 5 -19 8 -37 5 -39 -2 -2 -19 5
-38 17 -43 26 -61 26 -99 0 -16 -12 -32 -18 -35 -15 -3 3 0 25 7 48 l12 43
-42 37 -43 38 39 0 c50 0 79 20 94 65 14 41 24 38 40 -11z"/>
<path d="M1383 1678 c-5 -7 -19 -37 -29 -67 -22 -61 -38 -71 -119 -71 -44 0
-56 -4 -65 -20 -15 -27 -1 -49 59 -95 l49 -38 -19 -68 c-31 -113 -4 -133 94
-71 57 36 65 38 82 25 53 -39 106 -64 124 -58 28 9 30 31 9 105 l-18 65 37 30
c67 53 83 73 76 92 -10 26 -23 33 -73 34 -81 2 -91 9 -120 79 -22 53 -31 66
-52 68 -13 2 -29 -3 -35 -10z m83 -185 c10 -7 36 -13 58 -13 l41 -1 -37 -30
c-40 -33 -48 -62 -28 -113 11 -31 5 -32 -35 -6 -16 11 -39 20 -50 20 -11 0
-33 -9 -50 -20 -16 -11 -33 -20 -36 -20 -3 0 -1 23 5 51 l10 50 -39 34 -40 34
32 1 c55 0 79 16 98 62 l18 43 18 -40 c9 -21 25 -45 35 -52z"/>
<path d="M835 1403 c-80 -42 -116 -108 -116 -209 0 -93 24 -158 80 -214 l47
-47 -90 -16 c-118 -21 -208 -65 -244 -120 -27 -40 -27 -41 -30 -250 -2 -115
-1 -220 2 -233 l6 -24 270 0 c149 0 270 -3 270 -6 0 -4 -12 -33 -26 -65 -15
-32 -24 -66 -20 -75 6 -17 8 -17 128 -1 12 1 29 -16 51 -53 48 -80 62 -76 118
40 27 55 57 103 71 112 22 15 26 15 48 -2 13 -10 44 -60 69 -111 27 -55 53
-95 62 -97 11 -2 29 17 53 56 l36 59 42 -8 c66 -13 98 -11 105 6 3 9 -14 57
-37 107 l-42 91 31 24 c37 29 40 66 12 128 l-18 40 39 49 c50 64 52 105 5 140
-17 13 -45 30 -61 36 -26 10 -28 14 -23 51 7 51 -8 106 -33 119 -23 12 -75 13
-116 1 -29 -8 -34 -6 -60 30 -60 80 -120 81 -175 4 -29 -40 -33 -42 -62 -34
-41 12 -94 11 -116 -1 -10 -5 -35 -7 -55 -3 l-36 6 39 34 c60 51 94 128 95
216 0 40 -5 88 -12 108 -15 44 -66 97 -109 115 -44 19 -160 17 -198 -3z m185
-61 c49 -26 70 -73 70 -152 0 -80 -23 -133 -75 -179 -35 -30 -42 -33 -89 -28
-44 4 -55 10 -86 45 -42 47 -60 98 -60 173 0 102 56 159 155 159 29 0 65 -8
85 -18z m404 -433 c42 -56 33 -54 148 -33 l37 6 3 -73 3 -73 58 -33 c31 -19
57 -38 57 -42 0 -5 -18 -29 -40 -54 -22 -25 -40 -52 -40 -61 0 -8 9 -38 20
-66 11 -28 18 -55 15 -60 -3 -5 -27 -12 -53 -15 -78 -10 -89 -18 -106 -79 -9
-30 -21 -58 -26 -61 -6 -4 -32 7 -59 24 -26 17 -56 31 -66 31 -10 0 -40 -14
-66 -31 -27 -17 -53 -28 -58 -24 -6 3 -18 31 -28 62 -19 61 -29 68 -106 78
-27 4 -50 12 -53 19 -3 7 4 34 16 60 11 26 20 55 20 63 0 9 -18 36 -41 60 -22
24 -39 49 -36 56 2 7 28 26 58 42 l54 31 3 73 3 73 37 -6 c114 -21 105 -23
146 33 21 28 43 51 50 51 6 0 29 -23 50 -51z m-368 -47 c6 -4 14 -25 18 -47 6
-40 6 -40 -46 -70 -86 -49 -92 -87 -26 -169 29 -36 30 -41 18 -70 -25 -59 -24
-105 1 -132 l22 -24 -151 0 -152 0 0 134 c0 109 -3 138 -16 150 -19 20 -19 20
-38 0 -13 -12 -16 -41 -16 -150 l0 -134 -60 0 -60 0 0 198 c0 225 1 227 78
266 41 20 70 29 177 50 37 7 240 6 251 -2z m114 -576 c9 -27 28 -59 43 -72 24
-20 26 -26 15 -49 -15 -33 -20 -32 -43 11 -19 35 -21 36 -67 32 -26 -3 -48 -1
-48 4 0 21 62 129 72 126 7 -3 19 -26 28 -52z m481 -11 c16 -35 29 -67 29 -69
0 -3 -22 -2 -49 1 -47 5 -50 4 -65 -25 -22 -43 -34 -47 -46 -17 -9 23 -7 30
14 46 22 17 31 33 55 102 6 15 15 27 21 27 6 0 24 -29 41 -65z"/>
<path d="M1330 828 c-65 -11 -120 -53 -153 -118 -25 -47 -28 -63 -24 -113 7
-83 46 -143 116 -179 127 -67 278 -5 317 130 20 68 12 125 -25 184 -49 77
-136 113 -231 96z m139 -87 c65 -47 85 -145 42 -215 -25 -40 -91 -76 -140 -76
-72 0 -143 61 -157 137 -12 61 32 143 90 169 44 20 126 13 165 -15z"/>
</g>
</svg>
