<?xml version="1.0" standalone="no"?>
<!DOCTYPE svg PUBLIC "-//W3C//DTD SVG 20010904//EN"
 "http://www.w3.org/TR/2001/REC-SVG-20010904/DTD/svg10.dtd">
<svg version="1.0" xmlns="http://www.w3.org/2000/svg"
 width="512.000000pt" height="512.000000pt" viewBox="0 0 512.000000 512.000000"
 preserveAspectRatio="xMidYMid meet">

<g transform="translate(0.000000,512.000000) scale(0.100000,-0.100000)"
fill="#fff" stroke="none">
<path d="M2330 5109 c-52 -5 -156 -20 -230 -33 -536 -99 -1002 -350 -1385
-747 -197 -205 -323 -385 -450 -644 -124 -251 -192 -470 -237 -750 -29 -185
-32 -548 -5 -725 45 -292 120 -533 243 -780 134 -271 283 -477 496 -687 396
-393 877 -632 1448 -720 161 -24 539 -24 700 0 751 116 1371 507 1785 1127
203 303 342 670 402 1060 27 177 24 540 -5 725 -69 434 -233 823 -495 1174
-92 124 -364 396 -488 488 -519 388 -1145 568 -1779 512z m765 -223 c331 -72
698 -251 963 -469 39 -33 72 -61 72 -63 0 -2 -197 -4 -438 -4 l-438 0 -71 108
c-82 123 -218 295 -315 398 -38 39 -68 74 -68 76 0 6 201 -25 295 -46z m-841
-29 c-99 -104 -235 -275 -317 -399 l-71 -108 -438 0 c-241 0 -438 2 -438 4 0
7 171 140 235 183 169 113 363 211 551 276 167 58 409 113 508 116 l39 1 -69
-73z m441 -69 c115 -121 220 -247 319 -385 l38 -53 -492 0 -492 0 38 53 c100
139 208 269 321 387 69 72 129 130 133 130 5 0 65 -60 135 -132z m-969 -696
c-67 -133 -139 -311 -188 -459 l-43 -133 -562 0 c-310 0 -563 2 -563 4 0 13
82 176 129 256 69 117 140 218 234 332 l72 88 483 0 482 0 -44 -88z m1491 -29
c82 -157 136 -282 188 -435 l44 -128 -889 0 -889 0 39 113 c52 152 119 307
193 450 l61 117 596 0 596 0 61 -117z m1163 40 c130 -155 250 -338 327 -500
23 -51 43 -95 43 -98 0 -3 -254 -5 -563 -5 l-564 0 -27 93 c-39 127 -128 351
-192 480 l-54 107 482 0 483 -1 65 -76z m467 -858 c69 -230 97 -430 97 -690
-1 -255 -26 -439 -92 -665 l-28 -95 -2262 -3 -2261 -2 -30 97 c-67 221 -94
419 -94 673 0 254 27 452 94 673 l30 97 2261 -2 2261 -3 24 -80z m-3332 -1687
c37 -128 119 -337 185 -475 l69 -143 -482 0 -482 1 -65 76 c-131 155 -254 345
-331 512 -22 46 -39 85 -39 87 0 2 254 4 563 4 l564 0 18 -62z m1896 -50 c-53
-158 -101 -271 -183 -430 l-71 -138 -598 0 -598 0 -78 158 c-79 158 -127 272
-182 435 l-30 87 889 0 889 0 -38 -112z m1333 90 c-12 -39 -81 -172 -137 -265
-67 -111 -144 -218 -227 -316 l-64 -77 -483 0 -483 0 54 108 c64 128 154 352
192 480 l28 92 563 0 564 0 -7 -22z m-2839 -891 c93 -145 281 -382 374 -472
23 -21 41 -42 41 -45 0 -9 -166 14 -275 39 -366 82 -701 244 -982 474 -40 33
-73 61 -73 63 0 2 197 4 438 4 l437 0 40 -63z m1132 49 c-23 -59 -212 -291
-364 -446 l-112 -115 -81 80 c-143 140 -373 420 -397 481 -4 12 71 14 477 14
409 0 481 -2 477 -14z m1093 10 c0 -8 -143 -121 -225 -177 -237 -164 -527
-292 -809 -355 -126 -29 -296 -54 -296 -44 0 3 16 22 36 41 93 89 286 331 379
476 l40 63 438 0 c240 0 437 -2 437 -4z"/>
<path d="M501 3069 c-35 -10 -65 -20 -67 -21 -2 -2 55 -217 127 -478 111 -406
133 -478 155 -497 40 -36 100 -27 124 18 6 11 49 147 96 301 46 155 86 283 87
285 3 2 137 -431 169 -546 21 -75 91 -104 142 -58 22 19 44 89 155 497 71 261
128 476 126 478 -6 6 -156 44 -159 41 -2 -2 -41 -139 -85 -304 -45 -165 -85
-308 -89 -318 -5 -11 -36 78 -92 265 -92 308 -107 338 -165 338 -59 0 -71 -23
-165 -336 -87 -286 -88 -289 -99 -249 -6 22 -46 167 -88 323 -60 220 -80 282
-92 281 -9 -1 -45 -10 -80 -20z"/>
<path d="M2042 3071 c-34 -10 -65 -21 -69 -24 -3 -3 52 -219 123 -479 140
-514 142 -518 209 -518 65 0 65 -1 191 423 32 108 61 197 64 197 4 0 44 -127
91 -282 92 -308 106 -338 164 -338 67 0 66 -2 206 508 71 260 129 477 129 482
0 10 -94 40 -136 43 l-26 2 -88 -320 -87 -320 -27 85 c-14 47 -52 174 -85 283
-33 109 -66 209 -75 222 -9 14 -27 27 -41 31 -37 9 -73 -3 -91 -31 -9 -13 -42
-113 -75 -222 -33 -109 -71 -236 -85 -283 l-27 -85 -87 320 c-59 217 -92 321
-101 322 -8 1 -42 -6 -77 -16z"/>
<path d="M3571 3069 c-35 -10 -65 -19 -66 -21 -1 -2 56 -217 127 -478 139
-513 142 -520 208 -520 61 0 72 24 166 338 48 161 91 287 94 280 4 -7 45 -139
91 -293 90 -303 101 -325 162 -325 64 0 67 9 207 521 71 260 128 475 126 477
-6 6 -157 45 -160 41 -2 -2 -40 -141 -86 -309 -45 -168 -85 -311 -88 -319 -3
-8 -45 118 -93 280 -94 313 -102 329 -161 329 -61 0 -76 -31 -168 -338 -46
-155 -87 -277 -90 -270 -4 7 -44 151 -90 321 -66 243 -86 307 -99 306 -9 -1
-45 -10 -80 -20z"/>
</g>
</svg>
