<?xml version="1.0" standalone="no"?>
<!DOCTYPE svg PUBLIC "-//W3C//DTD SVG 20010904//EN"
 "http://www.w3.org/TR/2001/REC-SVG-20010904/DTD/svg10.dtd">
<svg version="1.0" xmlns="http://www.w3.org/2000/svg"
 width="50.000000pt" height="50.000000pt" viewBox="0 0 50.000000 50.000000"
 preserveAspectRatio="xMidYMid meet">

<g transform="translate(0.000000,50.000000) scale(0.100000,-0.100000)"
fill="#fff" stroke="none">
<path d="M256 484 c-4 -9 -5 -18 -4 -19 2 -1 26 -10 53 -20 62 -22 125 -85
144 -143 10 -29 20 -42 33 -42 24 0 23 15 -6 75 -29 61 -86 117 -146 144 -55
25 -66 26 -74 5z"/>
<path d="M31 415 c-40 -46 -40 -79 0 -162 58 -121 222 -253 315 -253 38 0 104
51 104 79 0 21 -80 101 -101 101 -9 0 -26 -11 -39 -25 -13 -14 -27 -25 -30
-25 -17 0 -98 71 -124 108 l-28 41 26 31 c14 18 26 37 26 43 0 18 -82 97 -101
97 -9 0 -31 -16 -48 -35z"/>
<path d="M250 382 c0 -11 13 -24 32 -33 29 -12 70 -59 80 -91 3 -8 10 -8 21
-2 16 9 16 13 -6 55 -33 62 -127 115 -127 71z"/>
</g>
</svg>
