<?xml version="1.0" standalone="no"?>
<!DOCTYPE svg PUBLIC "-//W3C//DTD SVG 20010904//EN"
 "http://www.w3.org/TR/2001/REC-SVG-20010904/DTD/svg10.dtd">
<svg version="1.0" xmlns="http://www.w3.org/2000/svg"
 width="64.000000pt" height="64.000000pt" viewBox="0 0 64.000000 64.000000"
 preserveAspectRatio="xMidYMid meet">

<g transform="translate(0.000000,64.000000) scale(0.100000,-0.100000)"
fill="#fff" stroke="none">
<path d="M92 623 c-18 -9 -45 -32 -60 -51 l-27 -35 0 -217 0 -217 27 -35 c47
-62 72 -68 288 -68 216 0 241 6 288 68 l27 35 0 217 0 217 -27 35 c-48 62 -72
68 -290 68 -158 0 -199 -3 -226 -17z m392 -169 c22 -9 36 -60 36 -134 0 -81
-14 -127 -43 -136 -28 -10 -285 -9 -314 0 -29 9 -43 55 -43 136 0 116 12 133
100 144 43 5 244 -2 264 -10z"/>
<path d="M280 325 c0 -30 2 -55 4 -55 7 0 96 52 96 56 0 2 -22 15 -50 29 l-50
25 0 -55z"/>
</g>
</svg>
