<?xml version="1.0" standalone="no"?>
<!DOCTYPE svg PUBLIC "-//W3C//DTD SVG 20010904//EN"
 "http://www.w3.org/TR/2001/REC-SVG-20010904/DTD/svg10.dtd">
<svg version="1.0" xmlns="http://www.w3.org/2000/svg"
 width="200.000000pt" height="200.000000pt" viewBox="0 0 200.000000 200.000000"
 preserveAspectRatio="xMidYMid meet">

<g transform="translate(0.000000,200.000000) scale(0.100000,-0.100000)"
fill="#fff" stroke="none">
<path d="M852 1988 c-7 -9 -7 -29 -2 -58 28 -148 20 -328 -16 -365 -22 -21
-59 -19 -103 7 -21 12 -45 19 -54 15 -43 -17 -153 -212 -178 -317 -21 -91 -15
-197 16 -272 6 -15 2 -18 -25 -18 -44 0 -64 13 -100 65 -43 62 -65 60 -84 -7
-36 -128 -50 -234 -50 -378 0 -129 3 -154 27 -226 67 -204 224 -341 462 -406
68 -18 107 -22 255 -22 148 0 187 4 255 22 238 65 394 202 462 406 25 76 27
92 26 251 0 131 -5 193 -21 270 -28 135 -64 246 -84 258 -22 14 -48 -7 -48
-39 0 -23 -54 -94 -71 -94 -5 0 -9 44 -9 98 0 333 -200 619 -550 786 -82 40
-93 42 -108 24z m160 -122 c167 -95 288 -216 359 -361 61 -125 72 -179 73
-347 1 -81 4 -150 8 -154 14 -13 97 19 137 52 l39 34 16 -67 c30 -133 40 -220
39 -353 0 -117 -3 -145 -25 -212 -63 -190 -200 -310 -423 -369 -115 -31 -355
-31 -470 0 -223 59 -361 179 -422 369 -33 99 -36 266 -9 419 l19 102 32 -25
c45 -34 90 -45 138 -34 69 15 75 29 48 105 -46 130 -18 282 82 437 l36 57 37
-15 c20 -8 55 -16 77 -16 34 0 46 5 73 35 45 48 58 120 51 270 -3 64 -3 117 1
117 4 0 42 -20 84 -44z"/>
<path d="M800 897 c-70 -24 -102 -119 -61 -181 26 -39 57 -55 109 -56 34 0 49
6 77 33 101 92 5 249 -125 204z m98 -89 c26 -54 -27 -105 -83 -80 -33 15 -42
55 -20 88 13 21 23 25 53 22 29 -2 40 -9 50 -30z"/>
<path d="M980 645 c-223 -224 -263 -268 -254 -282 6 -9 15 -18 20 -20 5 -2
128 116 274 262 223 224 263 268 254 282 -6 9 -15 18 -20 20 -5 2 -128 -116
-274 -262z"/>
<path d="M1076 560 c-57 -51 -60 -125 -6 -179 102 -101 270 33 191 153 -26 39
-57 55 -108 56 -33 0 -50 -7 -77 -30z m124 -50 c24 -24 25 -48 4 -78 -23 -34
-84 -28 -102 10 -30 64 48 118 98 68z"/>
</g>
</svg>
